<?xml version="1.0" encoding="UTF-8" standalone="no"?>
<!-- Created with Inkscape (http://www.inkscape.org/) -->

<svg
   xmlns:dc="http://purl.org/dc/elements/1.1/"
   xmlns:cc="http://creativecommons.org/ns#"
   xmlns:rdf="http://www.w3.org/1999/02/22-rdf-syntax-ns#"
   xmlns:svg="http://www.w3.org/2000/svg"
   xmlns="http://www.w3.org/2000/svg"
   xmlns:xlink="http://www.w3.org/1999/xlink"
   xmlns:sodipodi="http://sodipodi.sourceforge.net/DTD/sodipodi-0.dtd"
   xmlns:inkscape="http://www.inkscape.org/namespaces/inkscape"
   width="114.94727mm"
   height="114.94727mm"
   viewBox="0 0 407.29349 407.29348"
   id="svg2"
   version="1.1"
   inkscape:version="0.92.4 (5da689c313, 2019-01-14)"
   sodipodi:docname="KenFlixIcon.svg">
  <title
     id="title5759">Netflix icon</title>
  <defs
     id="defs4">
    <linearGradient
       inkscape:collect="always"
       id="linearGradient5625">
      <stop
         style="stop-color:#000000;stop-opacity:1;"
         offset="0"
         id="stop5627" />
      <stop
         style="stop-color:#000000;stop-opacity:0"
         offset="1"
         id="stop5629" />
    </linearGradient>
    <radialGradient
       inkscape:collect="always"
       xlink:href="#linearGradient5625"
       id="radialGradient5631"
       cx="367.99158"
       cy="280.36646"
       fx="367.99158"
       fy="280.36646"
       r="368.71729"
       gradientTransform="matrix(0.30406823,-0.10528244,3.8564095,11.137765,-825.1108,-2803.5461)"
       gradientUnits="userSpaceOnUse" />
    <radialGradient
       inkscape:collect="always"
       xlink:href="#linearGradient5625"
       id="radialGradient5757"
       gradientUnits="userSpaceOnUse"
       gradientTransform="matrix(0.30406823,-0.10528244,3.8564095,11.137765,-825.1108,-2803.5461)"
       cx="367.99158"
       cy="280.36646"
       fx="367.99158"
       fy="280.36646"
       r="368.71729" />
    <filter
       inkscape:collect="always"
       style="color-interpolation-filters:sRGB"
       id="filter884"
       x="-0.10832323"
       width="1.2166465"
       y="-0.055276793"
       height="1.1105536">
      <feGaussianBlur
         inkscape:collect="always"
         stdDeviation="21.885939"
         id="feGaussianBlur886" />
    </filter>
  </defs>
  <sodipodi:namedview
     id="base"
     pagecolor="#ffffff"
     bordercolor="#666666"
     borderopacity="1.0"
     inkscape:pageopacity="0.0"
     inkscape:pageshadow="2"
     inkscape:zoom="1.4142136"
     inkscape:cx="156.08715"
     inkscape:cy="222.95378"
     inkscape:document-units="px"
     inkscape:current-layer="g839"
     showgrid="false"
     inkscape:window-width="1920"
     inkscape:window-height="986"
     inkscape:window-x="-11"
     inkscape:window-y="-11"
     inkscape:window-maximized="1"
     fit-margin-top="0"
     fit-margin-left="0"
     fit-margin-right="0"
     fit-margin-bottom="0"
     inkscape:object-paths="true" />
  <metadata
     id="metadata7">
    <rdf:RDF>
      <cc:Work
         rdf:about="">
        <dc:format>image/svg+xml</dc:format>
        <dc:type
           rdf:resource="http://purl.org/dc/dcmitype/StillImage" />
        <dc:title>Netflix icon</dc:title>
        <cc:license
           rdf:resource="http://creativecommons.org/licenses/by-sa/3.0/" />
        <dc:date>17/11/2016</dc:date>
        <dc:creator>
          <cc:Agent>
            <dc:title>CMetalCore</dc:title>
          </cc:Agent>
        </dc:creator>
        <dc:publisher>
          <cc:Agent>
            <dc:title>CMetalCore</dc:title>
          </cc:Agent>
        </dc:publisher>
      </cc:Work>
      <cc:License
         rdf:about="http://creativecommons.org/licenses/by-sa/3.0/">
        <cc:permits
           rdf:resource="http://creativecommons.org/ns#Reproduction" />
        <cc:permits
           rdf:resource="http://creativecommons.org/ns#Distribution" />
        <cc:requires
           rdf:resource="http://creativecommons.org/ns#Notice" />
        <cc:requires
           rdf:resource="http://creativecommons.org/ns#Attribution" />
        <cc:permits
           rdf:resource="http://creativecommons.org/ns#DerivativeWorks" />
        <cc:requires
           rdf:resource="http://creativecommons.org/ns#ShareAlike" />
      </cc:License>
    </rdf:RDF>
  </metadata>
  <g
     inkscape:label="Capa 1"
     inkscape:groupmode="layer"
     id="layer1"
     transform="translate(12.494543,6.7556334)">
    <g
       id="g4182">
      <g
         transform="matrix(0.29074008,0,0,0.29074008,81.631476,113.77111)"
         id="g5747">
        <path
           style="fill:#b1060f;fill-opacity:1;fill-rule:evenodd;stroke:none;stroke-width:0.31012276px;stroke-linecap:butt;stroke-linejoin:miter;stroke-opacity:1"
           d="M 136.05078 69.876953 L 136.05078 217.12109 L 136.05078 217.97656 C 136.05143 298.50687 136.12994 364.44438 136.22656 364.54102 C 136.32358 364.63802 141.33834 364.16587 147.37109 363.49023 C 153.40384 362.81457 161.74085 361.97401 165.89844 361.62305 C 172.27486 361.08474 191.31302 359.86121 193.51758 359.84766 C 194.15887 359.84362 194.20008 356.53404 194.29297 297.48047 L 194.39258 235.11914 L 198.99805 248.15234 C 199.70994 250.16672 199.93339 250.79542 200.62695 252.75781 L 201.64648 217.97656 L 204.88086 217.97656 L 204.88086 107.62891 L 204.88086 69.876953 L 165.08594 69.876953 L 136.05078 69.876953 z "
           transform="matrix(3.2245296,0,0,3.2245296,-323.74628,-414.55152)"
           id="path5717" />
        <g
           id="g839">
          <path
             sodipodi:nodetypes="ccccccccccccccccccc"
             inkscape:connector-curvature="0"
             id="path842"
             d="m 431.15264,-182.78216 -1.23438,3.43866 c -24.77697,70.02348 -53.92337,152.391944 -72.9109,206.06131 -34.61243,97.74663 -61.43298,173.28281 -93.85145,265.26162 l 20.57527,58.30604 c 51.20742,139.30623 89.55855,260.0681 142.21307,401.44133 0.17287,0.1729 12.6824,0.93134 27.79899,1.68156 45.79987,2.27268 102.55327,7.13924 145.60764,12.48873 9.9177,1.23216 18.4553,1.8661 19.0512,1.41705 L 450.85881,291.98574 v -0.006 l -19.11418,-54.2124 v -0.0189 l 19.11418,54.2313 167.54957,-474.76161 h -93.62472 z m 0.58571,420.60589 c -516.554536,503.30604 -258.27727,251.65302 0,0 z"
             style="fill:#000000;fill-opacity:0.5129683;fill-rule:evenodd;stroke:none;stroke-width:1px;stroke-linecap:butt;stroke-linejoin:miter;stroke-opacity:1;filter:url(#filter884)" />
          <path
             style="fill:#e50914;fill-opacity:1;fill-rule:evenodd;stroke:none;stroke-width:1px;stroke-linecap:butt;stroke-linejoin:miter;stroke-opacity:1"
             d="m 450.49982,-189.23122 -1.23438,3.43866 c -24.77697,70.02348 -53.92337,152.391945 -72.9109,206.061311 -34.61243,97.746629 -61.43298,173.282809 -93.85145,265.261619 l 20.57527,58.30604 c 51.20742,139.30623 89.55855,260.0681 142.21307,401.44133 0.17287,0.1729 12.6824,0.93134 27.79899,1.68156 45.79987,2.27268 102.55327,7.13924 145.60764,12.48873 9.9177,1.23216 18.4553,1.8661 19.0512,1.41705 L 470.20599,285.53668 v -0.006 l -19.11418,-54.2124 v -0.0189 l 19.11418,54.2313 167.54957,-474.76161 h -93.62472 z m 0.58571,420.60589 c -516.554539,503.30604 -258.27727,251.65302 0,0 z"
             id="path834"
             inkscape:connector-curvature="0"
             sodipodi:nodetypes="ccccccccccccccccccc" />
        </g>
      </g>
    </g>
  </g>
</svg>
